<svg xmlns="http://www.w3.org/2000/svg" viewBox="0 0 30 30"><defs><style>.cls-1{fill:#040707;}.cls-2{fill:#fff;}.cls-3{fill:#e93327;}</style></defs><g ><g ><path class="cls-1" d="M4,0H25.45A4.55,4.55,0,0,1,30,4.55V26a4,4,0,0,1-4,4H4a4,4,0,0,1-4-4V4A4,4,0,0,1,4,0Z"/><path class="cls-2" d="M15,12.87v1H13.37v.66h1.47v.95H13.38v.73H15v.94h-2.7V12.87Z"/><path class="cls-3" d="M10.35,12.87a.18.18,0,0,1,.1,0l.17.08a1.14,1.14,0,0,1,.58,1.81s0,.08-.06.11a3.19,3.19,0,0,1,.37.56A1.17,1.17,0,0,1,10.65,17a7.37,7.37,0,0,1-1.08.09V16.2h.57c.31,0,.48-.16.47-.41s-.16-.37-.46-.39l-.5,0-.08,0v-.79l.45,0c.29,0,.44-.15.44-.37s-.16-.37-.46-.37H8.82v-.92Z"/><path class="cls-2" d="M26.86,12.94c-.45.8-.9,1.6-1.34,2.41a.82.82,0,0,0-.08.41c0,.43,0,.87,0,1.34h-1c0-.39,0-.78,0-1.16a1.47,1.47,0,0,0-.22-.87c-.42-.73-.82-1.47-1.22-2.2h1.15l.81,1.6.77-1.6h1S26.82,12.91,26.86,12.94Z"/><path class="cls-2" d="M22.4,12.87v.94H21.31V17.1h-1V13.82H19.17v-1Z"/><path class="cls-2" d="M17.3,12.87l.23.09a1.42,1.42,0,0,1,.38,2.47l-.2.15.89,1.53H17.51c-.19-.34-.4-.69-.6-1s-.2-.46-.54-.34v-.89h.51c.39,0,.57-.18.57-.53s-.2-.51-.58-.52-.74,0-1.15,0v-.93Z"/><path class="cls-2" d="M4.87,12.87v3.29H6.36v.94H3.86V12.87Z"/><path class="cls-2" d="M8.1,12.87V17.1h-1V12.87Z"/></g></g></svg>
