<svg xmlns="http://www.w3.org/2000/svg" viewBox="0 0 30 5.7"><defs><style>.cls-1{fill:#ec1b2e;}.cls-2{fill:#231f20;}</style></defs><g ><g ><path class="cls-1" d="M1.93,1.67,1.67,2A1,1,0,0,0,1,1.62a.48.48,0,0,0-.34.14.41.41,0,0,0-.14.31.47.47,0,0,0,.12.3,2.1,2.1,0,0,0,.5.34,1.74,1.74,0,0,1,.63.47.8.8,0,0,1,.15.5.91.91,0,0,1-.28.67,1,1,0,0,1-.7.28A1.25,1.25,0,0,1,.42,4.5,1.1,1.1,0,0,1,0,4.18l.26-.3A1,1,0,0,0,1,4.22a.53.53,0,0,0,.42-.15.5.5,0,0,0,.17-.38.41.41,0,0,0-.11-.31A1.75,1.75,0,0,0,.92,3,1.61,1.61,0,0,1,.33,2.6a.81.81,0,0,1-.16-.5.75.75,0,0,1,.25-.6A.9.9,0,0,1,1,1.25,1.21,1.21,0,0,1,1.93,1.67Zm0-.34h.42l1,2.32,1-2.32h.08l1,2.32,1-2.32H6.9L5.52,4.54H5.44l-1-2.3-1,2.3H3.3ZM7,1.33h.41V4.54H7ZM7.22,0a.33.33,0,0,1,.23.09.34.34,0,0,1,.09.25.33.33,0,1,1-.65,0A.38.38,0,0,1,7,.09.34.34,0,0,1,7.22,0ZM9.6,1.67,9.34,2a1,1,0,0,0-.66-.33.48.48,0,0,0-.34.14.41.41,0,0,0-.14.31.47.47,0,0,0,.12.3,2.1,2.1,0,0,0,.5.34,1.7,1.7,0,0,1,.62.47.81.81,0,0,1,.16.5,1,1,0,0,1-.28.67,1,1,0,0,1-.7.28,1.19,1.19,0,0,1-.53-.13,1,1,0,0,1-.42-.32l.26-.3a1,1,0,0,0,.67.36A.54.54,0,0,0,9,4.08a.48.48,0,0,0,.17-.37.43.43,0,0,0-.1-.31,2.26,2.26,0,0,0-.52-.35A1.8,1.8,0,0,1,8,2.62a.83.83,0,0,1-.16-.5.79.79,0,0,1,.25-.61.91.91,0,0,1,.63-.25A1.23,1.23,0,0,1,9.6,1.67Zm2,0L11.38,2a1,1,0,0,0-.66-.33.48.48,0,0,0-.34.14.41.41,0,0,0-.14.31.47.47,0,0,0,.12.3,2.1,2.1,0,0,0,.5.34,1.83,1.83,0,0,1,.63.47.8.8,0,0,1,.15.5.91.91,0,0,1-.28.67,1,1,0,0,1-.7.28,1.25,1.25,0,0,1-.53-.13,1,1,0,0,1-.42-.32l.26-.3a1,1,0,0,0,.67.36.54.54,0,0,0,.42-.16.53.53,0,0,0,.18-.37.49.49,0,0,0-.11-.31,2.06,2.06,0,0,0-.52-.35A1.91,1.91,0,0,1,10,2.62a.83.83,0,0,1-.16-.5.82.82,0,0,1,.25-.61.93.93,0,0,1,.63-.25A1.23,1.23,0,0,1,11.64,1.67Z"/><path class="cls-2" d="M15.15,2l-.67.38a1.49,1.49,0,0,0-.38-.28A1.26,1.26,0,0,0,13.67,2a1.07,1.07,0,0,0-.73.26.94.94,0,0,0-.29.69,1,1,0,0,0,.27.67,1,1,0,0,0,.7.27,1,1,0,0,0,.84-.38l.64.44a1.7,1.7,0,0,1-1.45.67,1.74,1.74,0,0,1-1.32-.5,1.7,1.7,0,0,1-.49-1.17,1.64,1.64,0,0,1,.24-.86,1.68,1.68,0,0,1,.65-.62,2.06,2.06,0,0,1,1.79,0A1.57,1.57,0,0,1,15.15,2Z"/><path class="cls-2" d="M17.94,1.33h.81V4.54h-.81V4.19a1.67,1.67,0,0,1-.47.33,1.28,1.28,0,0,1-.51.09,1.38,1.38,0,0,1-1.08-.48,1.73,1.73,0,0,1-.45-1.2,1.71,1.71,0,0,1,.43-1.22,1.48,1.48,0,0,1,1.06-.46,1.15,1.15,0,0,1,.55.11,1.86,1.86,0,0,1,.47.32ZM17.1,2h0a.86.86,0,0,0-.63.26,1,1,0,0,0-.25.67,1,1,0,0,0,.25.69.86.86,0,0,0,1.25,0A1,1,0,0,0,18,2.91a1,1,0,0,0-.25-.68A.9.9,0,0,0,17.1,2Z"/><path class="cls-2" d="M20.06,1.33v.35a1.65,1.65,0,0,1,.46-.32,1.18,1.18,0,0,1,.55-.11,1.37,1.37,0,0,1,1.06.46,1.72,1.72,0,0,1,.44,1.22,1.74,1.74,0,0,1-.46,1.2A1.36,1.36,0,0,1,21,4.61a1.33,1.33,0,0,1-.52-.09,1.5,1.5,0,0,1-.46-.33V5.7h-.8V1.33ZM20.9,2h0a.8.8,0,0,0-.62.26.9.9,0,0,0-.25.69.9.9,0,0,0,.25.69.87.87,0,0,0,1.22,0l0,0a1,1,0,0,0,.25-.69.88.88,0,0,0-.25-.67A.77.77,0,0,0,20.9,2Z"/><path class="cls-2" d="M23.25,0a.45.45,0,0,1,.36.16.57.57,0,0,1,.16.37.51.51,0,0,1-.16.37.48.48,0,0,1-.36.16A.43.43,0,0,1,22.89.9a.56.56,0,0,1-.15-.37.44.44,0,0,1,.15-.36A.43.43,0,0,1,23.25,0Zm-.4,1.33h.81V4.54h-.81Z"/><polygon class="cls-2" points="24.19 0.14 24.98 0.14 24.98 1.32 25.46 1.32 25.46 2.01 24.98 2.01 24.98 4.54 24.19 4.54 24.19 2.01 23.77 2.01 23.77 1.32 24.19 1.32 24.19 0.14"/><path class="cls-2" d="M28,1.33h.81V4.54H28V4.19a1.67,1.67,0,0,1-.47.33,1.28,1.28,0,0,1-.51.09,1.38,1.38,0,0,1-1.08-.48,1.73,1.73,0,0,1-.45-1.2,1.68,1.68,0,0,1,.44-1.22A1.44,1.44,0,0,1,27,1.25a1.14,1.14,0,0,1,.54.11,1.7,1.7,0,0,1,.47.32V1.33ZM27.12,2h0a.88.88,0,0,0-.63.26,1,1,0,0,0-.25.67,1,1,0,0,0,.25.69.89.89,0,0,0,.63.27.86.86,0,0,0,.62-.27A1,1,0,0,0,28,2.91a1,1,0,0,0-.25-.68A.9.9,0,0,0,27.12,2Z"/><polygon class="cls-2" points="29.19 0.08 30 0.08 30 4.54 29.19 4.54 29.19 0.08"/></g></g></svg>
