<svg xmlns="http://www.w3.org/2000/svg" xmlns:xlink="http://www.w3.org/1999/xlink" viewBox="0 0 30 30"><defs><style>.cls-1{fill:url(#linear-gradient);}.cls-2{fill:#fff;fill-rule:evenodd;}</style><linearGradient id="linear-gradient" x1="1.09" y1="1.25" x2="28.75" y2="28.91" gradientUnits="userSpaceOnUse"><stop offset="0" stop-color="#005997"/><stop offset="1" stop-color="#004a8d"/></linearGradient></defs><g ><g ><path class="cls-1" d="M4,0H25.45A4.55,4.55,0,0,1,30,4.55V26a4,4,0,0,1-4,4H4a4,4,0,0,1-4-4V4A4,4,0,0,1,4,0Z"/><path class="cls-2" d="M25.72,11.78a2.08,2.08,0,0,0-1-.14c-.41,0-.83,0-1.24.1a16.9,16.9,0,0,0-3.77.93,17.81,17.81,0,0,0-5.27,2.62,3.85,3.85,0,0,0-.94.93.51.51,0,0,0,.24.72,5.49,5.49,0,0,0,1.95.15,25.81,25.81,0,0,0,4.45-.7,9.61,9.61,0,0,0,5.24-3.1,3.13,3.13,0,0,0,.61-1,.5.5,0,0,0,0-.21.48.48,0,0,0-.25-.34Zm-9.61,8.54a23.43,23.43,0,0,1-8,.28c-1.91-.25-4.2-.85-4.57-3.06A3.13,3.13,0,0,1,4.6,14.75,19.84,19.84,0,0,1,12,10.68a30.55,30.55,0,0,1,9.37-1.49,30.65,30.65,0,0,1,4.15.24,1.71,1.71,0,0,1,.83.25.44.44,0,0,1,.15.48.45.45,0,0,1-.32.32,2.27,2.27,0,0,1-.69,0A24.31,24.31,0,0,0,18.7,12a23.26,23.26,0,0,0-6.82,3.74c-.9.74-1.48,1.43-1.35,1.94s.68.85,3,.76a37.92,37.92,0,0,0,7.74-1.25.5.5,0,0,1,.66.59.43.43,0,0,1-.18.25,4,4,0,0,1-.51.33,18.92,18.92,0,0,1-5.17,2Z"/></g></g></svg>
