<svg xmlns="http://www.w3.org/2000/svg" viewBox="0 0 30 30.6"><defs><style>.cls-1{fill:#861995;}.cls-2{fill:#d1ac6e;}.cls-3{fill:#d1ad6e;}.cls-4{fill:#871b96;}.cls-5{fill:#d0ac6d;}.cls-6{fill:#d2ae6e;}.cls-7{fill:#d1ad6d;}.cls-8{fill:#3e393d;}.cls-9{fill:#871a95;}.cls-10{fill:#fbfbfb;}.cls-11{fill:#413740;}.cls-12{fill:#fbfafb;}.cls-13{fill:#861994;}</style></defs><g ><g ><path class="cls-1" d="M21.81,19.36l1,1.57H7.07l0,0L8,19.53a.44.44,0,0,0,.1-.19l.14-.18q3.32-5,6.62-10c.1-.15.15-.14.24,0l2.26,3.41Zm-5.07-2.18a1.72,1.72,0,0,0,1-1.8,1.53,1.53,0,0,0-.81-1.27,2.8,2.8,0,0,0-1.33-.26c-1,0-2,0-3,0-.16,0-.21,0-.21.2v5.55c0,.16,0,.2.19.2h1.7c.19,0,.25,0,.25-.24,0-.6,0-1.2,0-1.8,0-.06,0-.13,0-.17s.13,0,.18.06a.9.9,0,0,1,.23.32c.29.53.58,1.06.86,1.6a.36.36,0,0,0,.36.23c.65,0,1.3,0,1.95,0,.22,0,.22,0,.11-.2-.2-.4-.41-.79-.6-1.19A3.9,3.9,0,0,0,16.74,17.18Z"/><path class="cls-2" d="M7.05,20.89l0,0a7.41,7.41,0,0,0,1.2,1.42,9.86,9.86,0,0,0,3.79,2.24,9.77,9.77,0,0,0,9.18-1.83,9.53,9.53,0,0,0,2.87-4,.22.22,0,0,1,.25-.17h5.38c.18,0,.2.05.16.2a15.31,15.31,0,0,1-9.29,10.77,14.69,14.69,0,0,1-3.5.92,13.81,13.81,0,0,1-2.22.15A15.33,15.33,0,0,1,.09,18.74c0-.17,0-.19.16-.19H5.64a.21.21,0,0,1,.24.17,9,9,0,0,0,1,2A.31.31,0,0,0,7.05,20.89ZM3.1,19.07H.9c-.16,0-.19,0-.14.2A14.78,14.78,0,0,0,14.19,30.05a14.13,14.13,0,0,0,4.39-.42A14.79,14.79,0,0,0,29.24,19.25c0-.15,0-.18-.14-.18H24.71a.23.23,0,0,0-.25.17,9.78,9.78,0,0,1-2.84,3.88,9.9,9.9,0,0,1-8.51,2.25,10,10,0,0,1-7.57-6.12.25.25,0,0,0-.27-.18Z"/><path class="cls-3" d="M27,12H24.35a.22.22,0,0,1-.24-.17,9.47,9.47,0,0,0-7.26-6.12A9.45,9.45,0,0,0,7.66,8.89a9.07,9.07,0,0,0-1.78,3,.21.21,0,0,1-.24.16H.24c-.15,0-.18,0-.15-.18A15.31,15.31,0,0,1,13,.14,14.9,14.9,0,0,1,16,0,15.3,15.3,0,0,1,29.66,11c.09.3.15.61.24.91.05.15,0,.16-.14.16Zm-.14-.5h2.21c.14,0,.19,0,.14-.17s-.16-.53-.25-.78A14.44,14.44,0,0,0,24.27,3.8,14.57,14.57,0,0,0,13.18.64,14.21,14.21,0,0,0,8.45,2.05,14.74,14.74,0,0,0,.77,11.28c-.07.26-.07.26.19.26H5.14a.39.39,0,0,0,.44-.3A9.76,9.76,0,0,1,8.51,7.36a10.09,10.09,0,0,1,7-2.3,9.9,9.9,0,0,1,4,1,10.17,10.17,0,0,1,5,5.28.25.25,0,0,0,.27.18Z"/><path class="cls-4" d="M8.1,17.69H7L14.93,5.78l7.92,11.91h-1.1l-.11-.15L15.11,7.7c-.18-.27-.18-.27-.36,0Q12.34,11.33,9.93,15C9.33,15.87,8.71,16.78,8.1,17.69Z"/><path class="cls-5" d="M8.1,17.69c.61-.91,1.23-1.82,1.83-2.74q2.41-3.61,4.82-7.25c.18-.27.18-.27.36,0l6.53,9.84.11.15,1.06,1.62c-.34.06-.67,0-1,.05l-4.5-6.76L15.05,9.19c-.09-.15-.14-.16-.24,0q-3.3,5-6.62,10l-.14.18c-.28,0-.56,0-.84,0s-.15-.05-.08-.16L8,17.9C8,17.83,8.09,17.78,8.1,17.69Z"/><path class="cls-6" d="M2.86,16.34H5.48c.15,0,.21,0,.2.19a4.34,4.34,0,0,0,0,.51c0,.09,0,.13-.12.12H.24c-.17,0-.24,0-.22-.21a2.8,2.8,0,0,0,0-.41c0-.16,0-.21.2-.2Z"/><path class="cls-7" d="M2.86,13.3H5.48c.16,0,.21,0,.2.2s.08.46,0,.58-.38,0-.58,0H.24c-.18,0-.24-.05-.22-.23s-.08-.43,0-.55.38,0,.57,0Z"/><path class="cls-7" d="M2.84,15.64H.22c-.15,0-.22,0-.2-.19A3.08,3.08,0,0,0,0,15c0-.15,0-.2.2-.2H5.5c.13,0,.19,0,.18.17a3.38,3.38,0,0,0,0,.45c0,.16,0,.21-.2.21Z"/><path class="cls-7" d="M27.17,14.12H24.55c-.15,0-.21,0-.2-.19a2.06,2.06,0,0,0,0-.43c0-.16,0-.21.2-.21h5.22c.16,0,.23,0,.21.2s.08.46-.05.59-.37,0-.57,0C28.63,14.13,27.9,14.12,27.17,14.12Z"/><path class="cls-7" d="M27.17,14.82h2.62c.15,0,.2,0,.19.19a3.09,3.09,0,0,0,0,.43c0,.17,0,.21-.2.2H24.52c-.13,0-.18,0-.17-.16s-.08-.48,0-.61.39,0,.59,0Z"/><path class="cls-6" d="M27.15,17.16h-2.6c-.15,0-.21,0-.2-.19a3.38,3.38,0,0,0,0-.45c0-.14,0-.18.19-.18H29.8c.14,0,.19,0,.18.18s.09.47-.05.61-.38,0-.57,0Z"/><path class="cls-8" d="M16.74,17.18a3.9,3.9,0,0,1,.83,1.21c.19.4.4.79.6,1.19.11.2.11.2-.11.2-.65,0-1.3,0-1.95,0a.36.36,0,0,1-.36-.23c-.28-.54-.57-1.07-.86-1.6a.9.9,0,0,0-.23-.32c-.05,0-.11-.09-.18-.06s0,.11,0,.17c0,.6,0,1.2,0,1.8,0,.2-.06.24-.25.24H12.5c-.15,0-.19,0-.19-.2V14c0-.17,0-.2.21-.2,1,0,2,0,3,0a2.8,2.8,0,0,1,1.33.26,1.53,1.53,0,0,1,.81,1.27A1.72,1.72,0,0,1,16.74,17.18Zm-.56,0a3.3,3.3,0,0,0,.38-.13,1.51,1.51,0,0,0,.92-1.64,1.36,1.36,0,0,0-1.14-1.24,3.78,3.78,0,0,0-.47-.06c-1.07,0-2.13,0-3.2,0-.12,0-.16,0-.16.16v5.2c0,.13,0,.16.16.16H14c.14,0,.19,0,.18-.18V17.5c0-.13,0-.16.16-.16a.74.74,0,0,1,.67.46l.88,1.64c0,.07.07.14.18.14h1.83l-.67-1.29A1.89,1.89,0,0,0,16.18,17.15Z"/><path class="cls-1" d="M3.1,19.07H5.27a.25.25,0,0,1,.27.18,10,10,0,0,0,7.57,6.12,9.9,9.9,0,0,0,8.51-2.25,9.78,9.78,0,0,0,2.84-3.88.23.23,0,0,1,.25-.17H29.1c.15,0,.18,0,.14.18A14.79,14.79,0,0,1,18.58,29.63a14.13,14.13,0,0,1-4.39.42A14.78,14.78,0,0,1,.76,19.27c-.05-.16,0-.2.14-.2ZM6,22.15a2,2,0,0,0-1.75,1.3,1.4,1.4,0,0,0,.1,1.26A2.67,2.67,0,0,0,6.25,26,.15.15,0,0,0,6.42,26l.9-.86c.09-.09.09-.15,0-.24-.3-.3-.58-.61-.88-.91s-.21-.21-.42,0-.32.22-.33.37.21.24.31.37.12.08,0,.17a.16.16,0,0,1-.2.05,1.33,1.33,0,0,1-.38-.23.6.6,0,0,1-.14-.83A1.57,1.57,0,0,1,6,23.26a.56.56,0,0,1,.64,0,.51.51,0,0,1,.23.6.16.16,0,0,0,.08.22l.63.46c.13.11.2.06.26-.07a1.19,1.19,0,0,0-.06-1.22A3.57,3.57,0,0,0,7,22.52,1.41,1.41,0,0,0,6,22.15Zm15.59,5a1.59,1.59,0,0,0-.14-.6c-.27-.6-.55-1.19-.83-1.79,0-.1-.09-.13-.2-.07a7.94,7.94,0,0,1-.72.34c-.18.07-.17.15-.1.3.27.57.54,1.14.79,1.71a.42.42,0,0,1-.21.6.43.43,0,0,1-.66-.22c-.28-.56-.54-1.13-.8-1.7-.06-.14-.1-.21-.26-.11s-.47.23-.71.33-.16.12-.09.26c.26.56.51,1.11.78,1.67a1.3,1.3,0,0,0,1.52.82,3.14,3.14,0,0,0,1-.44A1.34,1.34,0,0,0,21.62,27.17Zm-10.43,2c0-.11,0-.21,0-.3A4,4,0,0,0,11,27.53c-.05-.11,0-.08.1-.09A1,1,0,0,0,12,26.6a.9.9,0,0,0-.51-1c-.61-.34-1.25-.58-1.88-.87-.09,0-.15,0-.19.08-.13.32-.28.64-.43.95l-.84,1.89c0,.09-.07.16.06.21l.78.35c.13.06.19,0,.24-.1.12-.29.26-.58.39-.86,0-.06,0-.15.12-.14s.12.07.14.15a.67.67,0,0,1,0,.24c0,.35.06.7.08,1.06,0,.06,0,.11.08.13Zm12.56-7a1.05,1.05,0,0,0-.8.32l-1.06,1.11c-.28.29-.28.29,0,.57l.12.11,2,1.86c.09.08.14.08.22,0s.39-.43.6-.64.05-.13,0-.2l-.58-.54c-.2-.17-.2-.2,0-.39a3.49,3.49,0,0,0,.36-.42,1,1,0,0,0,.12-1.09A1.23,1.23,0,0,0,23.75,22.24Zm-8.81,3.89a1.64,1.64,0,0,0-.81.14,1.94,1.94,0,0,0-.69,2.61,1.63,1.63,0,0,0,1.38.77,1.68,1.68,0,0,0,1.41-.41,2,2,0,0,0,.47-1.88,1.42,1.42,0,0,0-1-1.15A2.16,2.16,0,0,0,14.94,26.13Z"/><path class="cls-9" d="M26.9,11.54H24.73a.25.25,0,0,1-.27-.18,10.17,10.17,0,0,0-5-5.28,9.9,9.9,0,0,0-4-1,10.09,10.09,0,0,0-7,2.3,9.76,9.76,0,0,0-2.93,3.88.39.39,0,0,1-.44.3H1c-.26,0-.26,0-.19-.26A14.74,14.74,0,0,1,8.45,2.05,14.21,14.21,0,0,1,13.18.64,14.57,14.57,0,0,1,24.27,3.8,14.44,14.44,0,0,1,29,10.59c.09.25.16.52.25.78s0,.17-.14.17ZM16.41,1.25a1.43,1.43,0,0,0-1.36.69,2.2,2.2,0,0,0-.31,1.22,1.53,1.53,0,0,0,1.19,1.56l.45.07A1.4,1.4,0,0,0,18,3.91c.06-.15,0-.21-.12-.26l-.49-.21c-.29-.14-.28-.14-.44.15a1.09,1.09,0,0,1-.13.17A.54.54,0,0,1,16,3.59a1.54,1.54,0,0,1,.12-1.17.54.54,0,0,1,1,.13c0,.13.08.15.19.14L18,2.61c.1,0,.11-.08.09-.15a1.62,1.62,0,0,0-.34-.71A1.76,1.76,0,0,0,16.41,1.25Zm-7,3.23a1,1,0,0,1,.06-.14A1,1,0,0,0,9.33,3.2.84.84,0,0,0,8.25,3,21.55,21.55,0,0,0,6.4,4.11c-.11.07-.07.13,0,.21C6.93,5.2,7.48,6.07,8,7c.06.1.11.13.22.06s.48-.32.72-.46.12-.12,0-.23c-.18-.27-.35-.55-.52-.83,0,0-.11-.11,0-.18a.16.16,0,0,1,.19,0l.16.07.95.53c.07,0,.13.09.22,0l.9-.57c.08-.05.12-.11,0-.16A5.12,5.12,0,0,0,9.45,4.48Zm10.12.34c-.07,1,1.17,1.76,1.93,1.76,1,0,1.75-1.21,1.76-1.94,0-1-1.23-1.76-2-1.75A2,2,0,0,0,19.57,4.82ZM12.44,1.44l-1,.21c-.08,0-.1.06-.07.15s.09.44.14.66l.51,2.41c0,.12.06.16.2.13a7.34,7.34,0,0,1,.84-.18c.11,0,.13-.07.1-.18l-.36-1.72c-.09-.44-.18-.87-.28-1.31C12.54,1.55,12.56,1.43,12.44,1.44Z"/><path class="cls-10" d="M16.18,17.15a1.89,1.89,0,0,1,1.09,1.14l.67,1.29H16.11c-.11,0-.14-.07-.18-.14l-.88-1.64a.74.74,0,0,0-.67-.46c-.12,0-.16,0-.16.16v1.9c0,.15,0,.18-.18.18H12.67c-.13,0-.16,0-.16-.16v-5.2c0-.13,0-.16.16-.16,1.07,0,2.13,0,3.2,0a3.78,3.78,0,0,1,.47.06,1.36,1.36,0,0,1,1.14,1.24A1.51,1.51,0,0,1,16.56,17,3.3,3.3,0,0,1,16.18,17.15Zm-1.37-2h-.46c-.09,0-.13,0-.13.11,0,.3,0,.6,0,.9,0,.08,0,.11.11.11a3.84,3.84,0,0,0,1.07-.08.53.53,0,0,0,0-1A2.52,2.52,0,0,0,14.81,15.18Z"/><path class="cls-11" d="M6,22.15a1.41,1.41,0,0,1,1,.37,3.57,3.57,0,0,1,.72.78,1.19,1.19,0,0,1,.06,1.22c-.06.13-.13.18-.26.07l-.63-.46a.16.16,0,0,1-.08-.22.51.51,0,0,0-.23-.6.56.56,0,0,0-.64,0,1.57,1.57,0,0,0-.64.61.6.6,0,0,0,.14.83,1.33,1.33,0,0,0,.38.23.16.16,0,0,0,.2-.05c.07-.09,0-.12,0-.17s-.31-.21-.31-.37S5.9,24.09,6,24s.22-.21.42,0,.58.61.88.91c.09.09.09.15,0,.24l-.9.86a.15.15,0,0,1-.17.05,2.67,2.67,0,0,1-1.87-1.32,1.4,1.4,0,0,1-.1-1.26A2,2,0,0,1,6,22.15Zm0,.15a1.91,1.91,0,0,0-1.6,1.16,1.28,1.28,0,0,0,.1,1.23,2.49,2.49,0,0,0,1.65,1.17.19.19,0,0,0,.18,0l.77-.75c.06-.06.06-.1,0-.16l-.83-.85s-.06-.07-.13,0c-.33.23-.34.29-.06.58s.23.23,0,.45a.19.19,0,0,1-.19,0,1.32,1.32,0,0,1-.62-.37A.72.72,0,0,1,5.11,24,1.59,1.59,0,0,1,6,23.08a.75.75,0,0,1,1,.75.21.21,0,0,0,.13.27l.18.14c.37.27.43.24.48-.23a.44.44,0,0,0,0-.2,2.26,2.26,0,0,0-1.36-1.45A1.09,1.09,0,0,0,6,22.3Z"/><path class="cls-11" d="M21.62,27.17a1.34,1.34,0,0,1-.62,1.1,3.14,3.14,0,0,1-1,.44,1.3,1.3,0,0,1-1.52-.82c-.27-.56-.52-1.11-.78-1.67-.07-.14-.05-.2.09-.26s.48-.21.71-.33.2,0,.26.11c.26.57.52,1.14.8,1.7a.43.43,0,0,0,.66.22.42.42,0,0,0,.21-.6c-.25-.57-.52-1.14-.79-1.71-.07-.15-.08-.23.1-.3a7.94,7.94,0,0,0,.72-.34c.11-.06.16,0,.2.07.28.6.56,1.19.83,1.79A1.59,1.59,0,0,1,21.62,27.17Zm-.16,0a1.74,1.74,0,0,0-.16-.67c-.23-.49-.47-1-.68-1.48-.08-.19-.16-.21-.32-.11s-.45.13-.51.27.13.37.21.55c.18.41.38.81.56,1.22a.58.58,0,0,1-.28.81.59.59,0,0,1-.87-.29c-.26-.54-.51-1.08-.76-1.63,0-.1-.09-.13-.19-.07l-.56.26c-.07,0-.08.07,0,.14.28.58.53,1.17.83,1.74a1.06,1.06,0,0,0,1.14.63A2.49,2.49,0,0,0,21,28.05,1.11,1.11,0,0,0,21.46,27.21Z"/><path class="cls-11" d="M11.19,29.2l-1.13-.5c-.06,0-.07-.07-.08-.13,0-.36-.05-.71-.08-1.06a.67.67,0,0,0,0-.24c0-.08-.06-.15-.14-.15s-.1.08-.12.14c-.13.28-.27.57-.39.86-.05.12-.11.16-.24.1l-.78-.35c-.13-.05-.1-.12-.06-.21L9,25.77c.15-.31.3-.63.43-.95,0-.11.1-.13.19-.08.63.29,1.27.53,1.88.87a.9.9,0,0,1,.51,1,1,1,0,0,1-.89.84c-.05,0-.15,0-.1.09a4,4,0,0,1,.18,1.37C11.18,29,11.18,29.09,11.19,29.2ZM11,29c0-.23,0-.43,0-.63a1.27,1.27,0,0,0-.27-.9c-.06-.06,0-.14.08-.14a.86.86,0,0,1,.16,0,.83.83,0,0,0,.88-.8.79.79,0,0,0-.56-.8c-.54-.26-1.08-.49-1.63-.75-.09,0-.12,0-.16.07L8.32,27.62c0,.09,0,.13.06.17a4.41,4.41,0,0,1,.54.24c.11.06.16,0,.2-.08L9.54,27c0-.1.09-.12.19-.07a.59.59,0,0,1,.33.57c0,.31,0,.63.08.95,0,.05,0,.11,0,.14Z"/><path class="cls-11" d="M23.75,22.24a1.23,1.23,0,0,1,.93.68A1,1,0,0,1,24.56,24a3.49,3.49,0,0,1-.36.42c-.17.19-.17.22,0,.39l.58.54c.07.07.1.12,0,.2s-.41.43-.6.64-.13.09-.22,0l-2-1.86-.12-.11c-.3-.28-.3-.28,0-.57L23,22.56A1.05,1.05,0,0,1,23.75,22.24Zm0,.16a.92.92,0,0,0-.77.3l-1.1,1.17c-.08.08-.06.12,0,.19L24,26c.06.06.1.08.16,0s.28-.32.43-.47.07-.11,0-.17c-.24-.21-.46-.44-.7-.64s-.08-.14,0-.23a3.42,3.42,0,0,0,.58-.68.82.82,0,0,0,0-.89A1,1,0,0,0,23.79,22.4Z"/><path class="cls-11" d="M14.94,26.13a2.16,2.16,0,0,1,.72.08,1.42,1.42,0,0,1,1,1.15,2,2,0,0,1-.47,1.88,1.68,1.68,0,0,1-1.41.41,1.63,1.63,0,0,1-1.38-.77,1.94,1.94,0,0,1,.69-2.61A1.64,1.64,0,0,1,14.94,26.13Zm-.06,3.37c.94,0,1.46-.36,1.64-1a2.47,2.47,0,0,0,.08-.6,1.4,1.4,0,0,0-1-1.51,2.34,2.34,0,0,0-.69-.09,1.51,1.51,0,0,0-1.15.48A1.94,1.94,0,0,0,13.67,29,1.53,1.53,0,0,0,14.88,29.5Z"/><path class="cls-11" d="M16.41,1.25a1.76,1.76,0,0,1,1.38.5,1.62,1.62,0,0,1,.34.71c0,.07,0,.14-.09.15l-.79.08c-.11,0-.17,0-.19-.14a.54.54,0,0,0-1-.13A1.54,1.54,0,0,0,16,3.59a.54.54,0,0,0,.83.17,1.09,1.09,0,0,0,.13-.17c.16-.29.15-.29.44-.15l.49.21c.14.05.18.11.12.26a1.4,1.4,0,0,1-1.6.88l-.45-.07a1.53,1.53,0,0,1-1.19-1.56,2.2,2.2,0,0,1,.31-1.22A1.43,1.43,0,0,1,16.41,1.25Zm-.65,1.87a1.75,1.75,0,0,1,.16-.72.67.67,0,0,1,1.18-.09c.13.24.26.23.45.19l.31,0c.09,0,.11,0,.08-.13a1.2,1.2,0,0,0-.71-.81,2.44,2.44,0,0,0-.84-.15A1.36,1.36,0,0,0,15,2.45a4,4,0,0,0-.08.48,1.42,1.42,0,0,0,1,1.63,2.54,2.54,0,0,0,.48.09,1.27,1.27,0,0,0,1.37-.71c0-.09,0-.14-.06-.18a3.07,3.07,0,0,1-.45-.2c-.11-.05-.16-.05-.22.07a.63.63,0,0,1-.38.37C16.16,4.18,15.76,3.83,15.76,3.12Z"/><path class="cls-11" d="M9.45,4.48a5.12,5.12,0,0,1,1.44.72c.11,0,.07.11,0,.16l-.9.57c-.09.05-.15,0-.22,0l-.95-.53-.16-.07a.16.16,0,0,0-.19,0c-.07.07,0,.13,0,.18.17.28.34.56.52.83.07.11.06.16,0,.23s-.49.3-.72.46S8.09,7.06,8,7c-.55-.89-1.1-1.76-1.65-2.64,0-.08-.09-.14,0-.21A21.55,21.55,0,0,1,8.25,3a.84.84,0,0,1,1.08.2,1,1,0,0,1,.18,1.14A1,1,0,0,0,9.45,4.48Zm1.28.8L10.17,5a1.28,1.28,0,0,0-.9-.28c-.09,0-.15-.06-.07-.16l.13-.16a.79.79,0,0,0,0-.87.73.73,0,0,0-.75-.42,1.26,1.26,0,0,0-.51.19L6.6,4.16c-.09.06-.08.1,0,.17.52.82,1,1.63,1.53,2.45.06.1.1.09.19,0a5.6,5.6,0,0,1,.48-.3c.11-.06.13-.11.06-.22s-.32-.49-.47-.74c0-.09-.19-.17-.11-.27a.42.42,0,0,1,.43-.14A1,1,0,0,1,9,5.25l.83.48a.18.18,0,0,0,.21,0C10.22,5.59,10.46,5.44,10.73,5.28Z"/><path class="cls-11" d="M19.57,4.82A2,2,0,0,1,21.3,2.89c.73,0,2,.74,2,1.75,0,.73-.73,2-1.76,1.94C20.74,6.58,19.5,5.79,19.57,4.82Zm.16,0a1.82,1.82,0,0,0,1.77,1.6,1.83,1.83,0,0,0,1.59-1.78,1.82,1.82,0,0,0-1.77-1.59A1.78,1.78,0,0,0,19.73,4.82Z"/><path class="cls-11" d="M12.44,1.44c.12,0,.1.11.11.17.1.44.19.87.28,1.31l.36,1.72c0,.11,0,.16-.1.18a7.34,7.34,0,0,0-.84.18c-.14,0-.18,0-.2-.13l-.51-2.41c0-.22-.09-.44-.14-.66s0-.14.07-.15ZM13,4.57a.28.28,0,0,0,0-.08L12.5,2.12c0-.16,0-.39-.13-.47s-.34,0-.51.07-.31.07-.24.38l.54,2.59c0,.12.08.16.2.13s.37-.08.56-.12S13,4.68,13,4.57Z"/><path class="cls-8" d="M14.81,15.18a2.52,2.52,0,0,1,.6,0,.53.53,0,0,1,0,1,3.84,3.84,0,0,1-1.07.08c-.08,0-.11,0-.11-.11,0-.3,0-.6,0-.9,0-.09,0-.11.13-.11Zm.11.21c-.48,0-.48,0-.48.46V16c0,.09,0,.13.13.13a2.52,2.52,0,0,0,.77-.07.31.31,0,0,0,0-.6A2.13,2.13,0,0,0,14.92,15.39Z"/><path class="cls-12" d="M6,22.3a1.09,1.09,0,0,1,.39.06,2.26,2.26,0,0,1,1.36,1.45.44.44,0,0,1,0,.2c0,.47-.11.5-.48.23l-.18-.14A.21.21,0,0,1,7,23.83a.75.75,0,0,0-1-.75,1.59,1.59,0,0,0-.91.89.72.72,0,0,0,.17.76,1.32,1.32,0,0,0,.62.37.19.19,0,0,0,.19,0c.26-.22.26-.21,0-.45s-.27-.35.06-.58c.07-.05.09,0,.13,0l.83.85c.06.06.06.1,0,.16l-.77.75a.19.19,0,0,1-.18,0,2.49,2.49,0,0,1-1.65-1.17,1.28,1.28,0,0,1-.1-1.23A1.91,1.91,0,0,1,6,22.3Z"/><path class="cls-10" d="M21.46,27.21a1.11,1.11,0,0,1-.42.84,2.49,2.49,0,0,1-1.22.53A1.06,1.06,0,0,1,18.68,28c-.3-.57-.55-1.16-.83-1.74,0-.07,0-.11,0-.14l.56-.26c.1-.06.14,0,.19.07.25.55.5,1.09.76,1.63a.59.59,0,0,0,.87.29.58.58,0,0,0,.28-.81c-.18-.41-.38-.81-.56-1.22-.08-.18-.28-.39-.21-.55s.34-.17.51-.27.24-.08.32.11c.21.5.45,1,.68,1.48A1.74,1.74,0,0,1,21.46,27.21Z"/><path class="cls-10" d="M11,29l-.8-.36c-.07,0,0-.09,0-.14,0-.32-.06-.64-.08-.95a.59.59,0,0,0-.33-.57c-.1-.05-.15,0-.19.07L9.12,28c0,.1-.09.14-.2.08a4.41,4.41,0,0,0-.54-.24c-.09,0-.1-.08-.06-.17L9.49,25c0-.09.07-.11.16-.07.55.26,1.09.49,1.63.75a.79.79,0,0,1,.56.8.83.83,0,0,1-.88.8.86.86,0,0,0-.16,0c-.1,0-.14.08-.08.14a1.27,1.27,0,0,1,.27.9C11,28.52,11,28.72,11,29Zm0-2.64a.33.33,0,0,0-.18-.29,4.41,4.41,0,0,0-.58-.28c-.08,0-.11,0-.14.06s-.15.36-.24.54,0,.13.06.16a4,4,0,0,0,.61.22A.38.38,0,0,0,11,26.31Z"/><path class="cls-10" d="M23.79,22.4a1,1,0,0,1,.73.54.82.82,0,0,1,0,.89,3.42,3.42,0,0,1-.58.68c-.08.09-.1.14,0,.23s.46.43.7.64c.07.06.07.1,0,.17s-.29.31-.43.47-.1.05-.16,0l-2.1-2c-.07-.07-.09-.11,0-.19L23,22.7A.92.92,0,0,1,23.79,22.4Zm.1,1.23a.44.44,0,0,0-.64-.39,2.05,2.05,0,0,0-.4.38c-.05.05,0,.08,0,.13l.51.47s.06.08.1,0S23.87,23.89,23.89,23.63Z"/><path class="cls-12" d="M14.88,29.5A1.53,1.53,0,0,1,13.67,29a1.94,1.94,0,0,1,.07-2.21,1.51,1.51,0,0,1,1.15-.48,2.34,2.34,0,0,1,.69.09,1.4,1.4,0,0,1,1,1.51,2.47,2.47,0,0,1-.08.6C16.34,29.14,15.82,29.5,14.88,29.5Zm.88-1.73c0-.1,0-.24-.06-.36a.72.72,0,0,0-.69-.54.69.69,0,0,0-.69.47,1.63,1.63,0,0,0-.06,1,.68.68,0,0,0,.71.53.66.66,0,0,0,.69-.49A4,4,0,0,0,15.76,27.77Z"/><path class="cls-12" d="M15.76,3.12c0,.71.4,1.06.93.88a.63.63,0,0,0,.38-.37c.06-.12.11-.12.22-.07a3.07,3.07,0,0,0,.45.2c.1,0,.1.09.06.18a1.27,1.27,0,0,1-1.37.71A2.54,2.54,0,0,1,16,4.56a1.42,1.42,0,0,1-1-1.63A4,4,0,0,1,15,2.45a1.36,1.36,0,0,1,1.4-1.06,2.44,2.44,0,0,1,.84.15,1.2,1.2,0,0,1,.71.81c0,.1,0,.13-.08.13l-.31,0c-.19,0-.32,0-.45-.19a.67.67,0,0,0-1.18.09A1.75,1.75,0,0,0,15.76,3.12Z"/><path class="cls-10" d="M10.73,5.28c-.27.16-.51.31-.74.47a.18.18,0,0,1-.21,0L9,5.25a1,1,0,0,0-.28-.11.42.42,0,0,0-.43.14c-.08.1.06.18.11.27.15.25.3.5.47.74s0,.16-.06.22a5.6,5.6,0,0,0-.48.3c-.09.06-.13.07-.19,0-.5-.82-1-1.63-1.53-2.45,0-.07,0-.11,0-.17l1.48-.91a1.26,1.26,0,0,1,.51-.19.73.73,0,0,1,.75.42.79.79,0,0,1,0,.87l-.13.16c-.08.1,0,.17.07.16a1.28,1.28,0,0,1,.9.28ZM8.25,3.79a2.85,2.85,0,0,0-.7.38c-.06,0,0,.09,0,.13l.33.51c0,.06.05.09.12.05a2.83,2.83,0,0,0,.59-.44A.34.34,0,0,0,8.65,4,.38.38,0,0,0,8.25,3.79Z"/><path class="cls-10" d="M19.73,4.82a1.78,1.78,0,0,1,1.59-1.77,1.82,1.82,0,0,1,1.77,1.59A1.83,1.83,0,0,1,21.5,6.42,1.82,1.82,0,0,1,19.73,4.82Zm2.56-.28a.73.73,0,0,0-.44-.71.62.62,0,0,0-.72.07,1.68,1.68,0,0,0-.61,1,.62.62,0,0,0,.27.66.63.63,0,0,0,.74.13A1.57,1.57,0,0,0,22.29,4.54Z"/><path class="cls-12" d="M13,4.57c0,.11,0,.12-.1.13s-.38.07-.56.12-.17,0-.2-.13L11.62,2.1c-.07-.31-.07-.32.24-.38s.37-.16.51-.07.1.31.13.47L13,4.49A.28.28,0,0,1,13,4.57Z"/><path class="cls-13" d="M14.92,15.39a2.13,2.13,0,0,1,.42,0,.31.31,0,0,1,0,.6,2.52,2.52,0,0,1-.77.07c-.1,0-.14,0-.13-.13v-.11C14.44,15.39,14.44,15.39,14.92,15.39Z"/><path class="cls-11" d="M11,26.31a.38.38,0,0,1-.47.41,4,4,0,0,1-.61-.22c-.08,0-.1-.08-.06-.16s.16-.36.24-.54.06-.1.14-.06a4.41,4.41,0,0,1,.58.28A.33.33,0,0,1,11,26.31Zm-.39.27a.23.23,0,0,0,.23-.16.19.19,0,0,0-.07-.25,1,1,0,0,0-.23-.13c-.32-.15-.39-.12-.48.23,0,.06,0,.11,0,.14A1.7,1.7,0,0,0,10.58,26.58Z"/><path class="cls-11" d="M23.89,23.63c0,.26-.24.43-.42.62s-.07,0-.1,0l-.51-.47c-.05-.05-.06-.08,0-.13a2.05,2.05,0,0,1,.4-.38A.44.44,0,0,1,23.89,23.63Zm-.15,0a.3.3,0,0,0-.28-.27c-.13,0-.44.25-.43.34a2,2,0,0,0,.4.36C23.51,24,23.74,23.72,23.74,23.61Z"/><path class="cls-11" d="M15.76,27.77a4,4,0,0,1-.1.63.66.66,0,0,1-.69.49.68.68,0,0,1-.71-.53,1.63,1.63,0,0,1,.06-1,.69.69,0,0,1,.69-.47.72.72,0,0,1,.69.54C15.73,27.53,15.74,27.67,15.76,27.77ZM14.37,28a1,1,0,0,0,0,.38.56.56,0,0,0,.55.41.55.55,0,0,0,.55-.38,1.88,1.88,0,0,0,.08-.78A.59.59,0,0,0,15,27a.57.57,0,0,0-.58.54A1,1,0,0,0,14.37,28Z"/><path class="cls-11" d="M8.25,3.79a.38.38,0,0,1,.4.22.34.34,0,0,1-.05.41A2.83,2.83,0,0,1,8,4.86c-.07,0-.09,0-.12-.05L7.56,4.3s-.07-.09,0-.13A2.85,2.85,0,0,1,8.25,3.79Zm.29.4A.23.23,0,0,0,8.23,4a3.83,3.83,0,0,0-.44.25s0,.06,0,.12c.12.35.24.39.54.17a.9.9,0,0,0,.18-.16A.16.16,0,0,0,8.54,4.19Z"/><path class="cls-11" d="M22.29,4.54a1.57,1.57,0,0,1-.76,1.12.63.63,0,0,1-.74-.13.62.62,0,0,1-.27-.66,1.68,1.68,0,0,1,.61-1,.62.62,0,0,1,.72-.07A.73.73,0,0,1,22.29,4.54Zm-.75-.62a.39.39,0,0,0-.29.08,1.43,1.43,0,0,0-.57.92.49.49,0,0,0,.29.55.47.47,0,0,0,.57,0,1.57,1.57,0,0,0,.57-.84A.56.56,0,0,0,21.54,3.92Z"/><path class="cls-13" d="M10.58,26.58a1.7,1.7,0,0,1-.51-.17c-.07,0-.05-.08,0-.14.09-.35.16-.38.48-.23a1,1,0,0,1,.23.13.19.19,0,0,1,.07.25A.23.23,0,0,1,10.58,26.58Z"/><path class="cls-13" d="M23.74,23.61c0,.11-.23.43-.31.43a2,2,0,0,1-.4-.36c0-.09.3-.34.43-.34A.3.3,0,0,1,23.74,23.61Z"/><path class="cls-13" d="M14.37,28a1,1,0,0,1,0-.39A.57.57,0,0,1,15,27a.59.59,0,0,1,.6.56,1.88,1.88,0,0,1-.08.78.55.55,0,0,1-.55.38.56.56,0,0,1-.55-.41A1,1,0,0,1,14.37,28Z"/><path class="cls-13" d="M8.54,4.19a.16.16,0,0,1-.06.14.9.9,0,0,1-.18.16c-.3.22-.42.18-.54-.17,0-.06,0-.09,0-.12A3.83,3.83,0,0,1,8.23,4,.23.23,0,0,1,8.54,4.19Z"/><path class="cls-13" d="M21.54,3.92a.56.56,0,0,1,.57.72,1.57,1.57,0,0,1-.57.84.47.47,0,0,1-.57,0,.49.49,0,0,1-.29-.55A1.43,1.43,0,0,1,21.25,4,.39.39,0,0,1,21.54,3.92Z"/></g></g></svg>
