<svg xmlns="http://www.w3.org/2000/svg" viewBox="0 0 30 30"><defs><style>.cls-1{fill:#00a1dd;}.cls-2{fill:#fff;}</style></defs><g ><g ><path class="cls-1" d="M4,0H25.45A4.55,4.55,0,0,1,30,4.55V26a4,4,0,0,1-4,4H4a4,4,0,0,1-4-4V4A4,4,0,0,1,4,0Z"/><path class="cls-2" d="M2.5,22.15a79.85,79.85,0,0,1,4.57-8.79c.15-.27.32-.54.47-.82,2.29-4,5.35-8.82,6-9.6.08-.12.24-.25.38-.16a.29.29,0,0,1,.11.31l-.06.22a33.35,33.35,0,0,0-.42,11.85,2.5,2.5,0,0,1-.69,2.5,28.36,28.36,0,0,1-5.41,4,22.15,22.15,0,0,1-3.25,1.58c-.73.28-1.34.39-1.65-.15"/><path class="cls-2" d="M16.86,16.39c-.95-.45-1.47-.67-1.82-1.87a28,28,0,0,1-.75-6.67,24,24,0,0,1,.24-3.6c.14-.78.36-1.36,1-1.36a1,1,0,0,1,.81.47,78.79,78.79,0,0,1,5.34,8.36c.15.26.31.53.47.82,2.28,4,5,9,5.34,9.94.06.13.09.33-.06.42a.32.32,0,0,1-.32-.07l-.15-.15A32.82,32.82,0,0,0,16.86,16.39Z"/><path class="cls-2" d="M14.11,18.67A2.55,2.55,0,0,1,16.64,18a28.69,28.69,0,0,1,6.16,2.69,24.22,24.22,0,0,1,3,2c.59.51,1,1,.69,1.51a1.06,1.06,0,0,1-.81.47,83.55,83.55,0,0,1-9.91.43h-.94c-4.59,0-10.31-.22-11.28-.35-.15,0-.33-.08-.33-.26a.28.28,0,0,1,.2-.25l.21-.06A32.46,32.46,0,0,0,14.11,18.67Z"/></g></g></svg>
