<svg xmlns="http://www.w3.org/2000/svg" viewBox="0 0 18 15.95"><defs><style>.cls-1{fill:#91c84b;}</style></defs><g id="Layer_2" data-name="Layer 2"><g id="Layer_1-2" data-name="Layer 1"><g id="ZgGN67"><path class="cls-1" d="M0,11.29A4.42,4.42,0,0,1,.84,8.82,10.22,10.22,0,0,1,2.44,7C3,6.46,3.64,5.92,4.26,5.4A8.87,8.87,0,0,0,5.87,3.5c.16-.24.34-.46.5-.69s.15-.12.23,0c.2.32.33.68.5,1,0,0,0,.11.09.1s0-.08,0-.11A7.33,7.33,0,0,1,8.41.65,4.59,4.59,0,0,1,8.9.05a.12.12,0,0,1,.2,0,7,7,0,0,1,1.43,2.62,7.26,7.26,0,0,1,.22,1.11s0,.08,0,.09.08,0,.1-.06a5,5,0,0,0,.32-.71,3.78,3.78,0,0,1,.17-.35c.08-.13.18-.13.25,0a8.65,8.65,0,0,0,1.25,1.76A13.51,13.51,0,0,0,14.33,6a22.13,22.13,0,0,1,1.91,1.72A5.73,5.73,0,0,1,18,10.81a3.31,3.31,0,0,1-.6,2.65l-.61.74a1.14,1.14,0,0,0-.15.34,2.26,2.26,0,0,1-1.41,1.16,4.37,4.37,0,0,1-4.6-1.12A7.61,7.61,0,0,1,9.2,12.76c-.2-.34-.21-.34-.43,0a13.07,13.07,0,0,1-.7,1.12A5.41,5.41,0,0,1,5.4,15.73a3.75,3.75,0,0,1-3.07-.29,2.13,2.13,0,0,1-1-1.09,2.85,2.85,0,0,0-.55-.74A3.21,3.21,0,0,1,.05,12,4.4,4.4,0,0,1,0,11.29Zm17.68.37a4.79,4.79,0,0,0-.45-2.06,8.94,8.94,0,0,0-2.55-2.95A12.61,12.61,0,0,1,13.2,5.3c-.57-.62-1.06-1.31-1.6-1.95-.08-.1-.13-.09-.18,0a4.3,4.3,0,0,0-.27.62,2.83,2.83,0,0,0,0,1.75,2.15,2.15,0,0,0,1.11,1.2,17.25,17.25,0,0,1,2.95,1.9A4.56,4.56,0,0,1,16.7,11a3.53,3.53,0,0,1-.37,2.92c0,.07-.14.18-.08.24s.17-.05.24-.12A3.68,3.68,0,0,0,17.68,11.66ZM.31,11.32a2.84,2.84,0,0,0,.45,1.73,3.19,3.19,0,0,0,.84,1s.1.1.15.05,0-.11,0-.16a4.86,4.86,0,0,1-.43-1,3.42,3.42,0,0,1,.21-2.57A6.81,6.81,0,0,1,4.2,7.79c.58-.35,1.19-.63,1.76-1a1.75,1.75,0,0,0,.68-.64,3,3,0,0,0-.09-2.81c0-.1-.1-.05-.14,0L5.2,4.83A11,11,0,0,1,3.48,6.52a11.13,11.13,0,0,0-2.1,2.07A5.08,5.08,0,0,0,.31,11.32Zm16.22.83c0-.11,0-.23,0-.35s0-.23-.06-.34A4,4,0,0,0,14.89,9c-.57-.43-1.16-.84-1.77-1.22a13,13,0,0,0-1.62-.92.15.15,0,0,0-.17,0,1.46,1.46,0,0,0-.76,1.52,1.33,1.33,0,0,0,.93,1.18,2.52,2.52,0,0,0,.67.09A6,6,0,0,1,14.3,10a2.22,2.22,0,0,1,1.59,2.29A9.72,9.72,0,0,1,15.71,14s0,.09,0,.11.07,0,.09,0a2.27,2.27,0,0,0,.26-.28A2.86,2.86,0,0,0,16.53,12.15ZM1.43,12a4.82,4.82,0,0,0,.1.75A2.62,2.62,0,0,0,2.14,14s.07.09.11.06,0-.08,0-.12a5,5,0,0,1-.18-1.88,2.45,2.45,0,0,1,1.14-1.83,4.71,4.71,0,0,1,2.32-.65,7.91,7.91,0,0,0,1-.07,1.57,1.57,0,0,0,.94-1.4,1.64,1.64,0,0,0-.71-1.23.25.25,0,0,0-.3,0c-.23.12-.47.23-.69.36A27.37,27.37,0,0,0,3.42,8.71,5.21,5.21,0,0,0,2.06,10,3.81,3.81,0,0,0,1.43,12Zm12.72,1.72c0-.47-.19-.7-.53-.69,0,0-.11,0-.11.06s0,.36.13.47a.53.53,0,0,1,.2.59c0,.11,0,.24-.08.32a.83.83,0,0,1-1-.07,1.45,1.45,0,0,1-.33-.71c0-.18-.1-.27-.32-.27a1.19,1.19,0,0,1-1-.37,1.24,1.24,0,0,1-.12-1.32c0-.12,0-.18-.08-.24a.81.81,0,0,1-.38-.87,1.18,1.18,0,0,1,.23-.59c.19-.22.11-.36-.06-.54a1.74,1.74,0,0,1-.32-2.09A2.06,2.06,0,0,1,11,6.66c.14-.1.19-.2.08-.36a1.85,1.85,0,0,1-.29-.62s0-.07,0-.07,0,0-.06.07-.11.28-.15.43C10.28,7,10,7.9,9.8,8.81a5.11,5.11,0,0,0-.09,2.06,5.07,5.07,0,0,0,1.59,2.84,4,4,0,0,0,1.76,1.07.73.73,0,0,0,.86-.26A2,2,0,0,0,14.15,13.67ZM8.29,10.12a5.32,5.32,0,0,0-.13-1.27,27.23,27.23,0,0,0-.89-3.21s0-.08,0-.08a.16.16,0,0,0-.05.08,2.15,2.15,0,0,1-.33.76.1.1,0,0,0,0,.16,3.16,3.16,0,0,1,.53.62,1.7,1.7,0,0,1,.27,1.47,2.21,2.21,0,0,1-.64,1,.1.1,0,0,0,0,.16,2.55,2.55,0,0,1,.29.57A.82.82,0,0,1,7,11.45a.16.16,0,0,0-.07.21,2.9,2.9,0,0,1,.1.88.88.88,0,0,1-.83.79c-.19,0-.42,0-.54.06s-.13.32-.18.5a.75.75,0,0,1-.93.6c-.13,0-.29,0-.33-.18-.08-.3-.15-.61.15-.86a.48.48,0,0,0,.13-.38c0-.05,0-.09,0-.11a.43.43,0,0,0-.55.33,2.11,2.11,0,0,0,.06.83.76.76,0,0,0,1.1.6,4.18,4.18,0,0,0,1-.56,4,4,0,0,0,1.33-1.3A5,5,0,0,0,8.29,10.12Zm5.42,2.07h.18a1,1,0,0,1,1,1,3.08,3.08,0,0,1-.11,1c0,.07,0,.16.08.12a.62.62,0,0,0,.42-.37,2.38,2.38,0,0,0,.1-.65,1.81,1.81,0,0,0-.53-1.56,1.9,1.9,0,0,0-1.27-.43,6.8,6.8,0,0,0-1.73.23c-.62.14-.5,0-.65.66a.76.76,0,0,0,.57.86.9.9,0,0,0,1-.38A1,1,0,0,1,13.71,12.19Zm-11.16.88a3.3,3.3,0,0,0,.08.77.53.53,0,0,0,.39.41c.1,0,.17,0,.13-.12s0-.21-.08-.32a1.14,1.14,0,0,1,.39-1.37,1.22,1.22,0,0,1,1.27-.17,2.26,2.26,0,0,1,.61.54.82.82,0,0,0,1.3-.18,1.45,1.45,0,0,0,0-.85.23.23,0,0,0-.2-.21,7.79,7.79,0,0,0-2-.29,2,2,0,0,0-1.28.38A1.68,1.68,0,0,0,2.55,13.07ZM7.77,4.54a6,6,0,0,1,.05-.73A5.31,5.31,0,0,1,8.9,1.17c.08-.1.13-.09.21,0A5.21,5.21,0,0,1,10.2,4.55,10.53,10.53,0,0,1,10,6.41c-.16.71-.4,1.39-.5,2.1,0,.08,0,.2,0,.22s.08-.11.11-.17a14.54,14.54,0,0,0,.64-2.23,10.11,10.11,0,0,0,.28-1.72A5.94,5.94,0,0,0,10,2.05,5,5,0,0,0,9.14.53C9,.41,9,.41,8.87.54L8.66.83a6.87,6.87,0,0,0-.91,1.84,5.84,5.84,0,0,0-.27,1.81A8.89,8.89,0,0,0,7.69,6a14.09,14.09,0,0,0,.75,2.65s0,.1.06.09,0-.07,0-.1,0-.05,0-.07a7.43,7.43,0,0,0-.39-1.74A8.59,8.59,0,0,1,7.77,4.54Zm3.14,6.15c0,.07,0,.2.07.33s.1.2.26.21a5.47,5.47,0,0,0,1.45-.16A4.18,4.18,0,0,1,14.1,11a2.08,2.08,0,0,1,1.39,1s0,.14.11.13,0-.09,0-.14a1.94,1.94,0,0,0-1-1.5,5.35,5.35,0,0,0-2.85-.71A.82.82,0,0,0,10.91,10.69ZM5.85,9.83a5.54,5.54,0,0,0-2.42.62,1.9,1.9,0,0,0-1,1.5s0,.09,0,.11,0-.06.07-.09a1.63,1.63,0,0,1,1-.87,4.35,4.35,0,0,1,1.83,0,9.63,9.63,0,0,0,1.42.15.25.25,0,0,0,.23-.09.93.93,0,0,0,0-1A1.34,1.34,0,0,0,5.85,9.83ZM9.42,4.75c0-.22,0-.5-.06-.77a4.14,4.14,0,0,0-.29-1.25A.35.35,0,0,0,9,2.64c-.05,0-.07,0-.08.09a1.84,1.84,0,0,0-.15.36,6,6,0,0,0-.21,2.3,4.23,4.23,0,0,0,.36,1.48S9,7,9,7s0,0,.06-.08A5.7,5.7,0,0,0,9.42,4.75Zm.52,0a5.74,5.74,0,0,0-.83-3c-.09-.14-.15-.11-.22,0a4.89,4.89,0,0,0-.64,1.55,7.46,7.46,0,0,0-.12,2.45,7,7,0,0,0,.53,2.05s0,.1.07.09,0-.08,0-.12a5.34,5.34,0,0,0-.18-1.12,12.32,12.32,0,0,1-.29-1.47,6.51,6.51,0,0,1,.15-1.92A3.34,3.34,0,0,1,8.9,2c0-.09.11-.13.19,0a3.8,3.8,0,0,1,.4,1.05,6.46,6.46,0,0,1,.22,1.75,8.12,8.12,0,0,1-.3,1.68,6.34,6.34,0,0,0-.2,1.22s0,.08,0,.09,0,0,0-.07A10.32,10.32,0,0,0,9.94,4.72Zm3.79,8c.15,0,.32,0,.42.1a1.13,1.13,0,0,1,.24.52,2.39,2.39,0,0,1-.06,1s0,.09,0,.11.06,0,.08-.07a1.72,1.72,0,0,0,.23-.62c.11-.62-.12-1-.68-1.12-.3-.05-.63-.12-.84.22a0,0,0,0,1,0,0A.87.87,0,0,0,12.84,14a.44.44,0,0,0,.57.23c.13,0,.2-.15.12-.29s-.21-.31-.29-.48c-.15-.36-.11-.68.26-.75Zm-9.36-.18a2.49,2.49,0,0,0-.36,0c-.37.07-.64.2-.67.61a4.17,4.17,0,0,0,.18,1.21s0,.05.06,0a.08.08,0,0,0,.06-.08c0-.12,0-.24,0-.35a1.29,1.29,0,0,1,.18-1.17.59.59,0,0,1,.85,0,.72.72,0,0,1-.1,1,.29.29,0,0,0,0,.39c.11.08.44.07.5,0a1.32,1.32,0,0,0,.2-.75A1.13,1.13,0,0,0,4.37,12.49Z"/></g></g></g></svg>