<svg xmlns="http://www.w3.org/2000/svg" viewBox="0 0 30 5.57"><defs><style>.cls-1{fill:#df3025;}</style></defs><g ><g ><path d="M14.53,0V1.24H12.41v.87h1.91V3.35h-1.9V4.3h2.16V5.52H11.06V0Z"/><path class="cls-1" d="M8.46,0A.35.35,0,0,1,8.6,0l.22.1A1.51,1.51,0,0,1,9.58,2.5l-.09.13a3.94,3.94,0,0,1,.49.74A1.52,1.52,0,0,1,8.86,5.44a8.89,8.89,0,0,1-1.41.13V4.35h.74c.4,0,.63-.21.62-.54s-.21-.48-.6-.5l-.65,0a.33.33,0,0,1-.12,0v-1l.6,0c.37,0,.57-.19.57-.48S8.4,1.21,8,1.21H6.47V0Z"/><path d="M30,.09c-.59,1-1.18,2.1-1.75,3.16a1.31,1.31,0,0,0-.11.52c0,.57,0,1.14,0,1.75H26.81c0-.51,0-1,0-1.51a2,2,0,0,0-.29-1.14C26,1.92,25.47,1,24.94,0h1.5L27.5,2.1l1-2.1h1.36C29.91,0,30,.06,30,.09Z"/><path d="M24.19,0V1.24H22.76V5.53H21.43V1.24H20V0Z"/><path d="M17.53,0l.3.12a1.85,1.85,0,0,1,.49,3.22l-.25.2,1.15,2H17.81L17,4.19c-.15-.26-.26-.59-.7-.44V2.59H17c.5,0,.74-.24.74-.69s-.26-.67-.76-.68-1,0-1.5,0V0Z"/><path d="M1.31,0V4.3H3.26V5.52H0V0Z"/><path d="M5.53,0V5.52H4.22V0Z"/></g></g></svg>
