<svg xmlns="http://www.w3.org/2000/svg" xmlns:xlink="http://www.w3.org/1999/xlink" viewBox="0 0 30 30"><defs><style>.cls-1{fill:none;}.cls-2{fill:#0368b0;}.cls-3{clip-path:url(#clip-path);}.cls-4{fill:#fff;fill-rule:evenodd;}</style><clipPath id="clip-path"><rect class="cls-1" x="6" y="7.26" width="18" height="15.49"/></clipPath></defs><g ><g ><path class="cls-2" d="M4,0H25.45A4.55,4.55,0,0,1,30,4.55V26a4,4,0,0,1-4,4H4a4,4,0,0,1-4-4V4A4,4,0,0,1,4,0Z"/><g class="cls-3"><g ><g ><g ><path class="cls-4" d="M20.55,14.12a3.65,3.65,0,0,0,2.62-3.24c0-2-2.11-3.62-4.72-3.62H15.93a4.09,4.09,0,0,1,2.88,3.62,3.83,3.83,0,0,1-2,3.21,4.34,4.34,0,0,1,2.6,3.73c0,1.82-1.4,3.38-3.42,4.1h2.49c2.93,0,5.31-1.83,5.31-4.07A4.2,4.2,0,0,0,20.55,14.12Z"/><path class="cls-4" d="M18.78,17.86a4.2,4.2,0,0,0-3.2-3.74,3.66,3.66,0,0,0,2.62-3.24c0-2-2.12-3.62-4.73-3.62H6V21.93h7.47C16.41,21.93,18.78,20.11,18.78,17.86Zm-8.31-7.29h1A1.38,1.38,0,0,1,13,11.73a1.36,1.36,0,0,1-1.47,1.16H10.47Zm1.47,7.82H10.47V15.93h1.41a1.46,1.46,0,0,1,1.61,1.24,1.44,1.44,0,0,1-1.55,1.23Z"/></g></g></g></g></g></g></svg>
