<svg xmlns="http://www.w3.org/2000/svg" viewBox="0 0 30 26.88"><defs><style>.cls-1{fill:#00afef;}</style></defs><g ><g ><path class="cls-1" d="M0,23.28A95.57,95.57,0,0,1,5.48,12.73l.57-1C8.8,7,12.47,1.16,13.18.23c.1-.14.3-.3.46-.2a.35.35,0,0,1,.13.38,2.5,2.5,0,0,1-.07.26,39.9,39.9,0,0,0-.5,14.22c.13,1.27.2,1.92-.83,3a34,34,0,0,1-6.49,4.79A27,27,0,0,1,2,24.58c-.88.33-1.61.46-2-.18"/><path class="cls-1" d="M17.23,16.37c-1.14-.54-1.76-.8-2.18-2.24a33.9,33.9,0,0,1-.91-8,28.34,28.34,0,0,1,.3-4.32c.17-.93.42-1.64,1.15-1.64a1.22,1.22,0,0,1,1,.57c1.78,2.11,4.57,6.91,6.41,10,.18.31.37.63.56,1,2.74,4.77,6,10.85,6.41,11.93.07.16.11.4-.07.51a.38.38,0,0,1-.38-.08l-.18-.19A39.87,39.87,0,0,0,17.23,16.37Z"/><path class="cls-1" d="M13.93,19.11a3.07,3.07,0,0,1,3-.78,35.18,35.18,0,0,1,7.39,3.23A29.11,29.11,0,0,1,28,24c.7.6,1.2,1.17.83,1.8a1.22,1.22,0,0,1-1,.57,100.84,100.84,0,0,1-11.9.52H14.79c-5.5,0-12.37-.27-13.53-.42-.17,0-.4-.1-.4-.31a.34.34,0,0,1,.25-.3l.25-.07A39,39,0,0,0,13.93,19.11Z"/></g></g></svg>
