<svg xmlns="http://www.w3.org/2000/svg" xmlns:xlink="http://www.w3.org/1999/xlink" viewBox="0 0 30 25.81"><defs><style>.cls-1{fill:none;}.cls-2{clip-path:url(#clip-path);}.cls-3{fill:#0060ae;fill-rule:evenodd;}</style><clipPath id="clip-path"><rect class="cls-1" width="30" height="25.81"/></clipPath></defs><g ><g ><g class="cls-2"><g ><g ><g ><path class="cls-3" d="M24.25,11.44c2.59-1,4.37-3,4.37-5.4,0-3.34-3.53-6-7.88-6L20.2,0H16.55c2.86,1.13,4.81,3.41,4.81,6A6.37,6.37,0,0,1,18,11.4c2.61,1.35,4.32,3.64,4.32,6.23,0,3-2.32,5.63-5.68,6.82h4.14c4.89,0,8.86-3,8.86-6.78C29.6,14.88,27.4,12.48,24.25,11.44Z"/><path class="cls-3" d="M21.31,17.67c0-2.79-2.2-5.19-5.35-6.23,2.59-1,4.37-3,4.37-5.4,0-3.34-3.53-6-7.88-6H0V24.45H12.45C17.34,24.45,21.31,21.41,21.31,17.67ZM7.44,5.52H9.17a2.28,2.28,0,0,1,2.52,1.93A2.27,2.27,0,0,1,9.26,9.39H7.44Zm2.45,13H7.44V14.45H9.8c1.48,0,2.69.92,2.69,2.05a2.42,2.42,0,0,1-2.6,2.06Z"/></g></g></g></g></g></g></svg>
