<svg xmlns="http://www.w3.org/2000/svg" viewBox="0 0 30 29.45"><defs><style>.cls-1{fill:#ab2171;}.cls-2{fill:#6dbd45;}.cls-3{fill:#5f0c39;}.cls-4{fill:#5f0e3a;}.cls-5{fill:#591937;}</style></defs><g id="Layer_2" data-name="Layer 2"><g id="Layer_1-2" data-name="Layer 1"><g id="_4ztoDM" data-name="4ztoDM"><path class="cls-1" d="M18.77,22.55c7.34-1.36,13-12,7.49-18C41,12.65,8,50.47,2.87,13.51c0-3.6-.74-8.29.56-11.71.89,3,.66,7,2.26,9.88,2.12,4.14,4.12,8.74,8.81,10.39"/><path class="cls-2" d="M17,9.21A21,21,0,0,0,5.26.93c6.32-3.18,11.93,2.37,14,7.92.21,1.24,2.5,4.66.24,4.76-7,.11-14.8-4-14.58-11.84C9.62,2.33,15.37,7.69,17,9.21Z"/><path class="cls-3" d="M28.81,11c.24.88-2.36,7.48-2.23,4.72C27.94,10.85,23,10,19.46,9.76,18.83,8.4,18.3,7,17.55,5.7,24.24,3.52,28.8,3,28.81,11Z"/><path class="cls-4" d="M5.86,12c.3-.64,2.53-2,2.72-2.12A19.23,19.23,0,0,0,11,11.47c-.3.13-4,1.73-4.76,1.4"/><path class="cls-5" d="M3,14.48c-.3.46-2.79,1.27-3,1.35.27-.37.64-.8,2.87-2.32"/></g></g></g></svg>