<svg xmlns="http://www.w3.org/2000/svg" xmlns:xlink="http://www.w3.org/1999/xlink" viewBox="0 0 30 29.97"><defs><style>.cls-1{fill:#8a8a8d;}.cls-2{fill:url(#radial-gradient);}.cls-3{fill:#00609c;}</style><radialGradient id="radial-gradient" cx="17.94" cy="770.19" r="13.68" gradientTransform="translate(-4.42 -758.56)" gradientUnits="userSpaceOnUse"><stop offset="0" stop-color="#fff"/><stop offset="0.14" stop-color="#c9deea"/><stop offset="0.34" stop-color="#83b2cf"/><stop offset="0.52" stop-color="#4a8fba"/><stop offset="0.67" stop-color="#2276aa"/><stop offset="0.79" stop-color="#0967a1"/><stop offset="0.86" stop-color="#00619d"/><stop offset="0.97" stop-color="#00609c"/></radialGradient></defs><g ><g ><path class="cls-1" d="M28.48,25.84l-1.32-.63a3.75,3.75,0,0,1-.76-.48A14.67,14.67,0,0,0,30,15,15,15,0,0,0,15,0,14.36,14.36,0,0,0,9.65,1V3.74A12.21,12.21,0,0,1,15,2.55,12.52,12.52,0,0,1,27.52,15a12.27,12.27,0,0,1-2.9,8,4.35,4.35,0,0,1-.48-.84l-.63-1.3a.73.73,0,0,0-1.39.23v5.34a.74.74,0,0,0,.72.72h5.33a.72.72,0,0,0,.7-.72.71.71,0,0,0-.41-.62Z"/><g ><path class="cls-2" d="M15,5A10.08,10.08,0,0,0,9.65,6.58V8.79a2.43,2.43,0,0,1-2.42,2.45h0a2.47,2.47,0,0,1-1.29-.39A10,10,0,0,0,10.82,24.1,10.16,10.16,0,0,0,15,25a9.79,9.79,0,0,0,5.39-1.58V21.13a2.43,2.43,0,0,1,2.41-2.45,2.34,2.34,0,0,1,1.33.38A9.77,9.77,0,0,0,25,15,10,10,0,0,0,15,5Z"/></g><path class="cls-3" d="M15,27.47A12.52,12.52,0,0,1,2.55,15a4,4,0,0,1,.05-.85v-1A12.66,12.66,0,0,1,4.3,8.51,11,11,0,0,1,5.4,7a4.43,4.43,0,0,1,.48.85l.62,1.3a.71.71,0,0,0,1,.31.69.69,0,0,0,.39-.65V3.46a.74.74,0,0,0-.72-.72H1.88a.69.69,0,0,0-.34,1.31l1.29.62a8,8,0,0,1,.85.48A12.77,12.77,0,0,0,1.54,8.49a13.26,13.26,0,0,0-.77,1.92c-.05.09-.05.14-.1.24s-.14.53-.24.84a1.24,1.24,0,0,0,0,.19,5.35,5.35,0,0,0-.18,1,.43.43,0,0,1-.06.24c-.05.23-.05.52-.09.76a.58.58,0,0,1,0,.29c0,.36.05.74.05,1.1A15,15,0,0,0,15,30a14.55,14.55,0,0,0,5.34-1V26.22A12.64,12.64,0,0,1,15,27.47Z"/></g></g></svg>
