<svg xmlns="http://www.w3.org/2000/svg" viewBox="0 0 30 15.17"><defs><style>.cls-1{fill:#1a2965;fill-rule:evenodd;}</style></defs><g ><g ><path class="cls-1" d="M29,3.38a2.82,2.82,0,0,0-1.34-.18c-.53,0-1.08.07-1.62.13A22.68,22.68,0,0,0,21.1,4.54,23.56,23.56,0,0,0,14.22,8,4.94,4.94,0,0,0,13,9.17a.66.66,0,0,0,.31.94,7,7,0,0,0,2.54.2,32.45,32.45,0,0,0,5.81-.92,12.52,12.52,0,0,0,6.84-4A4.41,4.41,0,0,0,29.3,4.1a.86.86,0,0,0,0-.28A.68.68,0,0,0,29,3.38ZM16.45,14.52A30.59,30.59,0,0,1,6,14.89c-2.48-.33-5.48-1.1-6-4A4.08,4.08,0,0,1,1.43,7.26C3.84,4.85,7.81,3,11.06,2A40.09,40.09,0,0,1,23.29,0a41.43,41.43,0,0,1,5.4.31,2.21,2.21,0,0,1,1.08.33.58.58,0,0,1,.21.63.61.61,0,0,1-.43.42,3,3,0,0,1-.9.06,31.62,31.62,0,0,0-8.82,1.87,30.38,30.38,0,0,0-8.9,4.87C9.76,9.47,9,10.37,9.17,11s.88,1.1,4,1a49.42,49.42,0,0,0,10.09-1.63.65.65,0,0,1,.86.77.53.53,0,0,1-.23.33,6.79,6.79,0,0,1-.67.42,24,24,0,0,1-6.74,2.61Z"/></g></g></svg>
