<svg xmlns="http://www.w3.org/2000/svg" xmlns:xlink="http://www.w3.org/1999/xlink" viewBox="0 0 30 23.63"><defs><style>.cls-1,.cls-9{fill:#fff;}.cls-1,.cls-3,.cls-4,.cls-5,.cls-8{fill-rule:evenodd;}.cls-2{fill:#b82025;}.cls-3{fill:url(#linear-gradient);}.cls-4{fill:url(#linear-gradient-2);}.cls-5{fill:url(#linear-gradient-3);}.cls-6{fill:url(#linear-gradient-4);}.cls-7{fill:url(#linear-gradient-5);}.cls-8{fill:url(#linear-gradient-6);}</style><linearGradient id="linear-gradient" x1="12.9" y1="142.62" x2="24.55" y2="142.62" gradientTransform="matrix(1, 0, 0, -1, 0, 156.94)" gradientUnits="userSpaceOnUse"><stop offset="0" stop-color="#a01c1f" stop-opacity="0"/><stop offset="1" stop-color="#a01c1f"/></linearGradient><linearGradient id="linear-gradient-2" x1="14.42" y1="155.14" x2="8.41" y2="144.72" gradientTransform="matrix(1, 0, 0, -1, 0, 156.94)" gradientUnits="userSpaceOnUse"><stop offset="0" stop-color="#a01c1f"/><stop offset="1" stop-color="#a01c1f" stop-opacity="0"/></linearGradient><linearGradient id="linear-gradient-3" x1="15.42" y1="139.04" x2="15.42" y2="141.35" gradientTransform="matrix(1, 0, 0, -1, 0, 156.94)" gradientUnits="userSpaceOnUse"><stop offset="0.27" stop-color="#a01c1f"/><stop offset="1" stop-color="#a01c1f" stop-opacity="0"/></linearGradient><linearGradient id="linear-gradient-4" x1="6.73" y1="134.25" x2="6.73" y2="149.21" xlink:href="#linear-gradient-2"/><linearGradient id="linear-gradient-5" x1="1.65" y1="138.82" x2="14.1" y2="146" xlink:href="#linear-gradient-2"/><linearGradient id="linear-gradient-6" x1="19.82" y1="155.93" x2="19.82" y2="135.9" gradientTransform="matrix(1, 0, 0, -1, 0, 156.94)" gradientUnits="userSpaceOnUse"><stop offset="0" stop-color="#a01c1f"/><stop offset="0.54" stop-color="#e81e24"/><stop offset="1" stop-color="#a01c1f" stop-opacity="0"/></linearGradient></defs><g ><g ><path class="cls-1" d="M30,17.43a2.45,2.45,0,0,0-.29-.92h0L21.19,2.12A4.3,4.3,0,0,0,19.54.18,2.69,2.69,0,0,0,18.35,0C17.24,0,16,0,11.88.09a.86.86,0,0,0-.28,0,1.45,1.45,0,0,0-1,.89l0,0a6.55,6.55,0,0,0-.38.55L1,14.7c-1,1.38-1.22,2.35-.86,3,1,1.73,2.57,4,3.75,5.6A1.4,1.4,0,0,0,5,23.63H26a2.2,2.2,0,0,0,1.94-1.27c.57-1,2.16-3.86,2.07-4.93"/><path class="cls-2" d="M28.87,17.83h0a1.78,1.78,0,0,0-.2-1.54h0L20.64,3a3.81,3.81,0,0,0-1.53-1.79,1.92,1.92,0,0,0-1-.16c-1,0-2.22,0-6,.07a.86.86,0,0,0-.27,0,1.38,1.38,0,0,0-.94.82l0,0-.36.51L2.09,14.61C1.15,15.89,1,16.79,1.3,17.37c.92,1.61,2.38,3.48,3.47,5a1.32,1.32,0,0,0,1,.32H25.22a1.4,1.4,0,0,0,1.18-.4,10.91,10.91,0,0,0,.87-1.18,12.15,12.15,0,0,0,1.6-3.27Z"/><path class="cls-3" d="M16.25,6s2.35,3.72,4.39,7.53c1.46,2.72,2.93,5.35,3.57,6.46a1.62,1.62,0,0,1-.73,2.55,3.5,3.5,0,0,1-1.39.2H12.9Z"/><path class="cls-4" d="M17.11,4.66C16,3.13,14,.93,12.26,1.07c-.63.05-.88.19-1.47,1L5.71,9.38l5,4.18Z"/><polygon class="cls-5" points="7.77 17.85 23.07 17.9 21.8 15.62 9.37 15.59 7.77 17.85"/><path class="cls-6" d="M1.25,16.13a1.53,1.53,0,0,0,0,1.22c.18.3.4.67.61,1,.59.93,1.14,1.61,2.55,3.58.14.18.28.4.35.48a1.11,1.11,0,0,0,.24.16,2.64,2.64,0,0,0,.31.1,9.08,9.08,0,0,0,1.28,0,3.58,3.58,0,0,1-.93-.39A1.06,1.06,0,0,1,5.56,21l6.76-9.5V7.73H7L2.13,14.55a6,6,0,0,0-.88,1.58"/><path class="cls-7" d="M1.18,16.13a1.49,1.49,0,0,0,0,1.22c.17.3.4.67.61,1,.59.93,1.14,1.61,2.55,3.58.13.18.27.4.35.48a.91.91,0,0,0,.24.16,2.15,2.15,0,0,0,.31.1,8.89,8.89,0,0,0,1.27,0,3.53,3.53,0,0,1-.92-.39A1.07,1.07,0,0,1,5.48,21l6.77-9.5V7.73H6.88L2.06,14.55a6,6,0,0,0-.88,1.58"/><path class="cls-8" d="M24.73,21l2.51-2.72a2.06,2.06,0,0,0,1.45-2L20.66,3a4,4,0,0,0-1.53-1.8,1.82,1.82,0,0,0-1-.15c-1,0-2.23,0-6,.07a1.23,1.23,0,0,0-.27,0,1.39,1.39,0,0,0-1,.83,3.33,3.33,0,0,1,.31-.33.56.56,0,0,1,.29-.19,2.28,2.28,0,0,1,2,.49c.78.64,5.1,8.39,8,13.38C23.13,18,24.18,20,24.73,21"/><path class="cls-9" d="M10.19,11.9v4.88h-2V15.54H8.1l-.23.35-.32.48-.31-.48L7,15.54H7v1.24H4.87V11.9h2l.71,1.18.68-1.18Zm2.9,2.74q.57,0,.57.51a.42.42,0,0,1-.15.37.9.9,0,0,1-.5.11h-.07v-1Zm0-1.66c.36,0,.54.15.54.44a.38.38,0,0,1-.14.35.9.9,0,0,1-.47.09H13V13Zm.18,3.81a1.78,1.78,0,0,0,1.43-.43,1.55,1.55,0,0,0,.34-1,1.09,1.09,0,0,0-1-1.14,1.1,1.1,0,0,0,.62-.41,1.15,1.15,0,0,0,.21-.66,1.3,1.3,0,0,0-.35-.89,1.48,1.48,0,0,0-1.14-.39H10.91v4.88h2.34Zm5.91-4.88-1.17,0a2.62,2.62,0,0,0-1.9.7,2.32,2.32,0,0,0-.75,1.78,2.29,2.29,0,0,0,.72,1.71,2.63,2.63,0,0,0,1.93.7l1.17,0v-2.1h-.94a1.09,1.09,0,0,1-.53-.1.3.3,0,0,1-.19-.27c0-.24.22-.36.67-.36h1v-2ZM29,16.28a.83.83,0,0,0-.11-.15c-.08-.14-.23-.37-.43-.69a14.48,14.48,0,0,0-7.76,7.41h1.1A13.53,13.53,0,0,1,29,16.28"/></g></g></svg>
