<svg xmlns="http://www.w3.org/2000/svg" viewBox="0 0 15 12.35"><defs><style>.cls-1{fill:#fe7502;}.cls-2{fill:#9ecc05;}</style></defs><g id="Layer_2" data-name="Layer 2"><g id="Layer_1-2" data-name="Layer 1"><g id="_2TvXO2.tif" data-name="2TvXO2.tif"><path class="cls-1" d="M15,8.76c-1,.92-2.08,1.84-3.11,2.77l-.92.82L3.78,9.6l-2-5.88L8.53,5.94,9.92,9.75l2.27.74V9.2l1,.3v-6L6.31,1.21H15Z"/><path class="cls-2" d="M1.22,0,5.79,1.57l6.87,2.26v5l-.45-.13V4.16L1.1.51,1.16,0Z"/><path class="cls-2" d="M15,12.25c-1,.17-2,0-3.17.09A41.7,41.7,0,0,1,15,9.6Z"/><path class="cls-2" d="M.79,2.72,2.06,6.49,0,5.81v-5L11.54,4.63v5l-1.11-.36L9.13,5.71c-.05-.14-.09-.27-.26-.33Z"/><path class="cls-2" d="M1.89,12.26V7.09l.41.13,1,2.86,5.92,2.18Z"/></g></g></g></svg>