<svg xmlns="http://www.w3.org/2000/svg" viewBox="0 0 370.28 272.08"><defs><style>.cls-1{fill:#24a9e1}</style></defs><path class="cls-1" d="M212.09 0c1.26 8.31 2.49 16.63 3.79 24.93 2.01 12.87 4.09 25.73 6.11 38.59.73 4.64 1.25 9.31 2.05 13.94.49 2.83-1.04 4.31-2.99 5.85-3.55 2.8-6.92 5.82-10.42 8.69-8.29 6.8-16.63 13.56-24.91 20.37-6.95 5.7-13.83 11.48-20.78 17.18-6.91 5.67-13.85 11.29-20.78 16.94-11.33 9.23-22.63 18.5-34.01 27.67-10.01 8.06-20.09 16.04-30.18 23.99-10.49 8.26-20.71 16.84-31.02 25.31-9.46 7.78-18.81 15.69-28.28 23.45-6.41 5.25-12.53 10.85-19.24 15.74-.28.21-.6.37-1.42.87 1.49-2.07 2.57-3.7 3.79-5.23 4.48-5.61 9.04-11.15 13.52-16.76 9.75-12.21 19.51-24.42 29.2-36.67 8.72-11.02 17.32-22.14 26.03-33.16 8.64-10.93 17.36-21.8 26.02-32.72 9.2-11.59 18.34-23.22 27.55-34.8 9.53-11.98 19.14-23.91 28.68-35.9 8.3-10.44 16.52-20.94 24.81-31.38 7.65-9.65 15.36-19.25 23.01-28.9 2.07-2.61 4-5.33 5.99-8h3.5ZM353.97 271.96c-20.02 0-39.68-.01-59.34 0-58.96.04-117.91.1-176.87.11-23.46 0-46.91-.1-70.37-.14-13.5-.02-27 0-40.49 0-.46 0-.92-.02-1.37-.07-.36-.04-.82.03-.96-.43-.17-.55.37-.69.68-.9 5.03-3.5 10.08-6.99 15.11-10.48 9.02-6.26 18.03-12.53 27.06-18.77 9.95-6.87 19.93-13.69 29.88-20.56 11.92-8.23 23.84-16.47 35.72-24.75 1.76-1.23 3.48-.81 5.21-.28 5.26 1.62 10.41 3.54 15.68 5.14 11.18 3.4 22.29 7.05 33.41 10.64 10.04 3.24 20.05 6.58 30.1 9.78 13.1 4.18 26.25 8.21 39.35 12.41 6.6 2.12 13.1 4.56 19.68 6.71 10.51 3.44 21.06 6.75 31.59 10.13 10.84 3.48 21.67 7.03 32.52 10.47 8.13 2.57 16.32 4.96 24.44 7.55 2.94.93 5.92 1.82 8.96 3.44ZM370.28 268.72c-4.73-1.55-8.46-3.48-12.25-5.31-10.99-5.31-21.9-10.78-33.08-15.7-4.62-2.03-9.09-4.41-13.67-6.53-6.03-2.8-12.2-5.32-18.15-8.3-5.64-2.83-11.4-5.41-17.11-8.09-2.05-.96-2.05-3.36-2.51-5.21-3.56-14.24-6.82-28.57-10.52-42.77-3.18-12.2-5.78-24.53-8.93-36.73-2.26-8.73-4.43-17.49-6.55-26.26-2.35-9.7-4.76-19.38-6.85-29.14-2.31-10.83-5.29-21.49-7.8-32.27-2.51-10.77-5.22-21.49-7.93-32.2-1.53-6.04-3.25-12.03-4.86-18.05-.12-.46-.62-1.1.18-1.36.7-.23.85.47 1.1.94 3.21 6.04 6.37 12.1 9.64 18.1 3.59 6.61 7.27 13.17 10.92 19.74 4.96 8.92 9.88 17.87 14.91 26.75 6.34 11.2 12.76 22.35 18.9 33.66 4.03 7.43 8.32 14.72 12.46 22.09 3.84 6.84 7.51 13.77 11.47 20.54 4.25 7.28 7.96 14.85 12.38 22.04 2.59 4.21 4.5 8.83 7.06 13.07 3.13 5.19 6.02 10.5 8.88 15.84 2.34 4.38 4.92 8.62 7.13 13.09 2.32 4.68 5.21 9.06 7.78 13.62 4.06 7.22 8.09 14.46 12.08 21.72 4.31 7.87 8.64 15.73 13.29 23.42.56.93.57 2.12 2.05 3.32Z"/></svg>