<svg xmlns="http://www.w3.org/2000/svg" viewBox="0 0 30 20.49"><defs><style>.cls-1{fill:#fc6719;}</style></defs><g ><g ><g id="Group"><g ><g ><g ><path id="Shape" class="cls-1" d="M27.27.92a4.25,4.25,0,0,0-6.65,1.92c-1.16.83-3.47,3-13.48,3a4.33,4.33,0,0,0-4.62,4h0v.24c0,3.09,1.63,3.31,1.63,6.44a2.31,2.31,0,0,1-2.23,2.39H1.84c-1.16,0-1.16-.46-1.55-.46a.31.31,0,0,0-.29.3c0,.57,1.38,1.1,2.16,1.1a3.47,3.47,0,0,0,3-1.55s.1,1.55,2.58,1.55c1.65,0,2.15-.7,2.15-1.35a1.19,1.19,0,0,0-.4-.67,4.91,4.91,0,0,1-2-4.62A3,3,0,0,1,10.63,11,3.7,3.7,0,0,0,8.79,16h0a2.86,2.86,0,0,0,.3.54h1.16c1.15,0,1.54-.47,1.54-1s-.71-.54-.71-1.3a1,1,0,0,1,.94-1h3.55c.61,0,2.13.67,2.13,3.09v.86a2.93,2.93,0,0,0,2.59,3.23,3.25,3.25,0,0,0,.54,0c1.75,0,2.72-1,2.72-1.68s-.39-.65-.6-.93a3.51,3.51,0,0,1-.29-1.94,3,3,0,0,0,.84.11c1.29,0,1.89-.51,1.89-1.15s-1-.71-1.07-1.34a11,11,0,0,1,1.3-6.19l.9.42a1.11,1.11,0,0,0,.57.13.84.84,0,0,0,.6-.31A19.45,19.45,0,0,0,30,4.36,13.16,13.16,0,0,0,27.27.92Zm-1.05,1a1,1,0,0,1,.85,1,.93.93,0,0,1-1.14.66h0a.85.85,0,0,1-.18-1.7.77.77,0,0,1,.49.1Zm-3-.25A2.42,2.42,0,0,1,26.07,1,2.47,2.47,0,0,0,24,2c-.09.14-.36.49-.67.33a.39.39,0,0,1-.14-.54.31.31,0,0,1,.07-.09ZM11.7,8.82l-.07-.06a5.37,5.37,0,0,0-7.46,1.31h0A3.08,3.08,0,0,1,7,7.24c1.94-.41,4,0,6.42-.41a8.31,8.31,0,0,0,3.25,4.85c-1.35,0-3-1.6-5-2.86ZM19.37,19a4.43,4.43,0,0,0,1.75-.69,4.1,4.1,0,0,1,.63-3.81,6.54,6.54,0,0,0,.39,4.07,3.39,3.39,0,0,1-2.77.43Zm3.68-6.33h-.52a4,4,0,0,1-.67-.15l-.33-.1-.38-.14a7.59,7.59,0,0,1-.83-.34c-.3-.14-.58-.29-.86-.45L19,11.24l-.41-.52a6,6,0,0,1-.78-.64c-.25-.22-.47-.46-.69-.69a6.62,6.62,0,0,1-.59-.7A7.63,7.63,0,0,1,16.07,8c-.16-.23-.25-.41-.38-.59A.67.67,0,0,1,15.54,7l-.16-.34V6.51a.59.59,0,0,1,.16-.75.53.53,0,0,1,.71.24h0v.26a.39.39,0,0,0,.11.28,1.49,1.49,0,0,1,.19.45,2.55,2.55,0,0,0,.29.57,4.5,4.5,0,0,0,.39.67,11.15,11.15,0,0,0,1,1.41,8.59,8.59,0,0,0,.67.68l.36.32.37.28a4,4,0,0,0,.76.53,7.68,7.68,0,0,0,.74.41l.37.18.36.14c.23.06.43.16.63.2l.49.13.44.1Zm.59-2.91h-.37l-.46-.1-.55-.19a3.67,3.67,0,0,1-.6-.36,5.07,5.07,0,0,1-.61-.32,4.78,4.78,0,0,1-.59-.41,7.14,7.14,0,0,1-1.06-.92,11.86,11.86,0,0,1-.82-.93,6.09,6.09,0,0,1-.51-.74l-.14-.32a.56.56,0,0,1,.18-.77.55.55,0,0,1,.77.18L19,5l.11.28a2.33,2.33,0,0,0,.36.7,8.85,8.85,0,0,0,.6,1,7.81,7.81,0,0,0,.83,1l.49.46c.17.13.34.26.52.38a4,4,0,0,0,.52.32,2.47,2.47,0,0,0,.49.24l.44.19.34.1.31.1Zm.8-2.7L24,6.94l-.48-.15c-.32-.15-.64-.31-.95-.49A7.33,7.33,0,0,1,21.05,5a5.8,5.8,0,0,1-.47-.52l-.06-.19a.57.57,0,0,1,.1-.79.6.6,0,0,1,.8.09.17.17,0,0,0,0,.1v.07l.1.2a2.78,2.78,0,0,0,.3.53A6.56,6.56,0,0,0,23,5.91a5,5,0,0,0,.81.62c.13,0,.24.16.39.23l.37.18a3.14,3.14,0,0,0,.61.21,5.46,5.46,0,0,1-.69-.1ZM28,3.57l-.19.25a1.17,1.17,0,0,1-.19.3l-.27.27a2,2,0,0,1-.34.25,3,3,0,0,1-.41.18A3.42,3.42,0,0,1,25,4.94h-.31l-.26-.09h-.14a.43.43,0,0,1-.13-.56.4.4,0,0,1,.45-.17V4h.12l.14.08.23.09a2.94,2.94,0,0,0,1.35.16,2.36,2.36,0,0,0,.38-.1,2.07,2.07,0,0,0,.34-.15,2.69,2.69,0,0,0,.27-.2c.08-.09.18-.16.23-.23l.2-.13L28,3.34l.1-.17v.18a.89.89,0,0,1,0,.23Z"/></g></g></g></g></g></g></svg>
